<mxfile host="app.diagrams.net" agent="Mozilla/5.0 (Windows NT 10.0; Win64; x64) AppleWebKit/537.36 (KHTML, like Gecko) Chrome/129.0.0.0 Safari/537.36" version="24.8.6">
  <diagram name="Page-1" id="zLPv5DTs-1sK7KovD3rA">
    <mxGraphModel dx="1000" dy="497" grid="1" gridSize="10" guides="1" tooltips="1" connect="1" arrows="1" fold="1" page="1" pageScale="1" pageWidth="850" pageHeight="1100" math="0" shadow="0">
      <root>
        <mxCell id="0" />
        <mxCell id="1" parent="0" />
        <mxCell id="JhLzGRIABiB5RWp2oOmM-6" style="edgeStyle=orthogonalEdgeStyle;rounded=0;orthogonalLoop=1;jettySize=auto;html=1;exitX=1;exitY=0.5;exitDx=0;exitDy=0;entryX=0;entryY=0.5;entryDx=0;entryDy=0;fontSize=17;fontStyle=1;strokeWidth=2;" edge="1" parent="1" source="JhLzGRIABiB5RWp2oOmM-2" target="JhLzGRIABiB5RWp2oOmM-3">
          <mxGeometry relative="1" as="geometry" />
        </mxCell>
        <mxCell id="JhLzGRIABiB5RWp2oOmM-2" value="&lt;font face=&quot;Times New Roman&quot; style=&quot;font-size: 17px;&quot;&gt;Excitation&amp;nbsp;&lt;span style=&quot;font-size: 17px;&quot;&gt;Table&lt;/span&gt;&lt;/font&gt;" style="rounded=1;whiteSpace=wrap;html=1;fillColor=#dae8fc;strokeColor=#6c8ebf;fillStyle=auto;glass=0;shadow=1;fontSize=17;labelBackgroundColor=none;labelBorderColor=none;fontStyle=1" vertex="1" parent="1">
          <mxGeometry x="170" y="170" width="150" height="60" as="geometry" />
        </mxCell>
        <mxCell id="JhLzGRIABiB5RWp2oOmM-7" style="edgeStyle=orthogonalEdgeStyle;rounded=0;orthogonalLoop=1;jettySize=auto;html=1;exitX=1;exitY=0.5;exitDx=0;exitDy=0;entryX=0;entryY=0.5;entryDx=0;entryDy=0;fontSize=17;fontStyle=1;strokeWidth=2;" edge="1" parent="1" source="JhLzGRIABiB5RWp2oOmM-3" target="JhLzGRIABiB5RWp2oOmM-4">
          <mxGeometry relative="1" as="geometry" />
        </mxCell>
        <mxCell id="JhLzGRIABiB5RWp2oOmM-3" value="&lt;font face=&quot;Times New Roman&quot; style=&quot;font-size: 17px;&quot;&gt;LP&lt;/font&gt;" style="rounded=1;whiteSpace=wrap;html=1;fillColor=#fff2cc;strokeColor=#d6b656;fillStyle=auto;glass=0;shadow=1;fontSize=17;labelBackgroundColor=none;labelBorderColor=none;fontStyle=1" vertex="1" parent="1">
          <mxGeometry x="365" y="170" width="45" height="60" as="geometry" />
        </mxCell>
        <mxCell id="JhLzGRIABiB5RWp2oOmM-8" style="edgeStyle=orthogonalEdgeStyle;rounded=0;orthogonalLoop=1;jettySize=auto;html=1;exitX=1;exitY=0.5;exitDx=0;exitDy=0;fontSize=17;fontStyle=1;strokeWidth=2;" edge="1" parent="1" source="JhLzGRIABiB5RWp2oOmM-4">
          <mxGeometry relative="1" as="geometry">
            <mxPoint x="640" y="200" as="targetPoint" />
          </mxGeometry>
        </mxCell>
        <mxCell id="JhLzGRIABiB5RWp2oOmM-4" value="&lt;font face=&quot;Times New Roman&quot; style=&quot;font-size: 17px;&quot;&gt;Bell Model&lt;/font&gt;" style="rounded=1;whiteSpace=wrap;html=1;fillColor=#f8cecc;strokeColor=#b85450;fillStyle=auto;glass=0;shadow=1;fontSize=17;labelBackgroundColor=none;labelBorderColor=none;fontStyle=1" vertex="1" parent="1">
          <mxGeometry x="460" y="170" width="120" height="60" as="geometry" />
        </mxCell>
        <mxCell id="JhLzGRIABiB5RWp2oOmM-26" style="edgeStyle=orthogonalEdgeStyle;rounded=0;orthogonalLoop=1;jettySize=auto;html=1;exitX=1;exitY=0.5;exitDx=0;exitDy=0;" edge="1" parent="1" source="JhLzGRIABiB5RWp2oOmM-11">
          <mxGeometry relative="1" as="geometry">
            <mxPoint x="730" y="200.1428571428571" as="targetPoint" />
          </mxGeometry>
        </mxCell>
        <mxCell id="JhLzGRIABiB5RWp2oOmM-11" value="" style="triangle;whiteSpace=wrap;html=1;fontSize=17;fontStyle=1;fillColor=#d0cee2;strokeColor=#56517e;strokeWidth=2;" vertex="1" parent="1">
          <mxGeometry x="640" y="185" width="40" height="30" as="geometry" />
        </mxCell>
        <mxCell id="JhLzGRIABiB5RWp2oOmM-14" value="" style="endArrow=classic;html=1;rounded=0;entryX=0.5;entryY=0;entryDx=0;entryDy=0;" edge="1" parent="1" target="JhLzGRIABiB5RWp2oOmM-2">
          <mxGeometry width="50" height="50" relative="1" as="geometry">
            <mxPoint x="110" y="100" as="sourcePoint" />
            <mxPoint x="670" y="100" as="targetPoint" />
            <Array as="points">
              <mxPoint x="245" y="100" />
            </Array>
          </mxGeometry>
        </mxCell>
        <mxCell id="JhLzGRIABiB5RWp2oOmM-15" value="" style="endArrow=classic;html=1;rounded=0;entryX=0.5;entryY=0;entryDx=0;entryDy=0;" edge="1" parent="1" target="JhLzGRIABiB5RWp2oOmM-3">
          <mxGeometry width="50" height="50" relative="1" as="geometry">
            <mxPoint x="240" y="100" as="sourcePoint" />
            <mxPoint x="520" y="100" as="targetPoint" />
            <Array as="points">
              <mxPoint x="388" y="100" />
            </Array>
          </mxGeometry>
        </mxCell>
        <mxCell id="JhLzGRIABiB5RWp2oOmM-17" value="" style="endArrow=classic;html=1;rounded=0;entryX=0.5;entryY=0;entryDx=0;entryDy=0;" edge="1" parent="1" target="JhLzGRIABiB5RWp2oOmM-11">
          <mxGeometry width="50" height="50" relative="1" as="geometry">
            <mxPoint x="500" y="100" as="sourcePoint" />
            <mxPoint x="648" y="170" as="targetPoint" />
            <Array as="points">
              <mxPoint x="660" y="100" />
            </Array>
          </mxGeometry>
        </mxCell>
        <mxCell id="JhLzGRIABiB5RWp2oOmM-22" style="edgeStyle=orthogonalEdgeStyle;rounded=0;orthogonalLoop=1;jettySize=auto;html=1;exitX=1;exitY=0.5;exitDx=0;exitDy=0;entryX=0.5;entryY=0;entryDx=0;entryDy=0;strokeWidth=2;" edge="1" parent="1" source="JhLzGRIABiB5RWp2oOmM-18" target="JhLzGRIABiB5RWp2oOmM-2">
          <mxGeometry relative="1" as="geometry" />
        </mxCell>
        <mxCell id="JhLzGRIABiB5RWp2oOmM-23" style="edgeStyle=orthogonalEdgeStyle;rounded=0;orthogonalLoop=1;jettySize=auto;html=1;exitX=1;exitY=0.5;exitDx=0;exitDy=0;entryX=0.5;entryY=0;entryDx=0;entryDy=0;strokeWidth=2;" edge="1" parent="1" source="JhLzGRIABiB5RWp2oOmM-18" target="JhLzGRIABiB5RWp2oOmM-3">
          <mxGeometry relative="1" as="geometry" />
        </mxCell>
        <mxCell id="JhLzGRIABiB5RWp2oOmM-24" style="edgeStyle=orthogonalEdgeStyle;rounded=0;orthogonalLoop=1;jettySize=auto;html=1;exitX=1;exitY=0.5;exitDx=0;exitDy=0;strokeWidth=2;" edge="1" parent="1" source="JhLzGRIABiB5RWp2oOmM-18">
          <mxGeometry relative="1" as="geometry">
            <mxPoint x="520" y="170" as="targetPoint" />
          </mxGeometry>
        </mxCell>
        <mxCell id="JhLzGRIABiB5RWp2oOmM-25" style="edgeStyle=orthogonalEdgeStyle;rounded=0;orthogonalLoop=1;jettySize=auto;html=1;exitX=1;exitY=0.5;exitDx=0;exitDy=0;entryX=0.5;entryY=0;entryDx=0;entryDy=0;strokeWidth=2;" edge="1" parent="1" source="JhLzGRIABiB5RWp2oOmM-18" target="JhLzGRIABiB5RWp2oOmM-11">
          <mxGeometry relative="1" as="geometry" />
        </mxCell>
        <mxCell id="JhLzGRIABiB5RWp2oOmM-18" value="&lt;font face=&quot;Times New Roman&quot; style=&quot;font-size: 17px;&quot;&gt;Vc&lt;/font&gt;" style="rounded=1;whiteSpace=wrap;html=1;fillColor=#e1d5e7;strokeColor=#9673a6;fillStyle=auto;glass=0;shadow=1;fontSize=17;labelBackgroundColor=none;labelBorderColor=none;fontStyle=1" vertex="1" parent="1">
          <mxGeometry x="70" y="80" width="45" height="40" as="geometry" />
        </mxCell>
        <mxCell id="JhLzGRIABiB5RWp2oOmM-20" style="edgeStyle=orthogonalEdgeStyle;rounded=0;orthogonalLoop=1;jettySize=auto;html=1;exitX=0;exitY=0.5;exitDx=0;exitDy=0;entryX=0.5;entryY=1;entryDx=0;entryDy=0;strokeWidth=2;" edge="1" parent="1" source="JhLzGRIABiB5RWp2oOmM-19" target="JhLzGRIABiB5RWp2oOmM-2">
          <mxGeometry relative="1" as="geometry" />
        </mxCell>
        <mxCell id="JhLzGRIABiB5RWp2oOmM-21" style="edgeStyle=orthogonalEdgeStyle;rounded=0;orthogonalLoop=1;jettySize=auto;html=1;exitX=1;exitY=0.5;exitDx=0;exitDy=0;entryX=0.5;entryY=1;entryDx=0;entryDy=0;strokeWidth=2;" edge="1" parent="1" source="JhLzGRIABiB5RWp2oOmM-19" target="JhLzGRIABiB5RWp2oOmM-4">
          <mxGeometry relative="1" as="geometry" />
        </mxCell>
        <mxCell id="JhLzGRIABiB5RWp2oOmM-19" value="&lt;font face=&quot;Times New Roman&quot;&gt;Parameter control&lt;/font&gt;" style="rounded=1;whiteSpace=wrap;html=1;fillColor=#b0e3e6;strokeColor=#0e8088;fillStyle=auto;glass=0;shadow=1;fontSize=17;labelBackgroundColor=none;labelBorderColor=none;fontStyle=1" vertex="1" parent="1">
          <mxGeometry x="306.25" y="270" width="162.5" height="60" as="geometry" />
        </mxCell>
        <mxCell id="JhLzGRIABiB5RWp2oOmM-28" value="" style="edgeStyle=orthogonalEdgeStyle;rounded=0;orthogonalLoop=1;jettySize=auto;html=1;strokeWidth=2;" edge="1" parent="1" source="JhLzGRIABiB5RWp2oOmM-27" target="JhLzGRIABiB5RWp2oOmM-11">
          <mxGeometry relative="1" as="geometry" />
        </mxCell>
        <mxCell id="JhLzGRIABiB5RWp2oOmM-27" value="&lt;font face=&quot;Times New Roman&quot; style=&quot;font-size: 17px;&quot;&gt;Output&lt;/font&gt;" style="rounded=1;whiteSpace=wrap;html=1;fillColor=#cce5ff;strokeColor=#36393d;fillStyle=auto;glass=0;shadow=1;fontSize=17;labelBackgroundColor=none;labelBorderColor=none;fontStyle=1" vertex="1" parent="1">
          <mxGeometry x="730" y="180" width="70" height="40" as="geometry" />
        </mxCell>
      </root>
    </mxGraphModel>
  </diagram>
</mxfile>
